PathFileType	4	(X/Y/Z)	OpenSim_Sub03_EMGBaseline_Magnet.trc
DataRate	CameraRate	NumFrames	NumMarkers	Units	OrigDataRate	OrigDataStartFrame	OrigNumFrames
100	100	40	8	m	100	3687	7372
Frame#	Time	torso_imu_offset_imu	pelvis_imu_offset_imu	tibia_r_imu_offset_imu	femur_r_imu_offset_imu	tibia_l_imu_offset_imu	femur_l_imu_offset_imu	toes_r_imu_offset_imu	toes_l_imu_offset_imu
				X1	Y1	Z1	X2	Y2	Z2	X3	Y3	Z3	X4	Y4	Z4	X5	Y5	Z5	X6	Y6	Z6	X7	Y7	Z7	X8		Y8	Z8	

3687	36.86000000	-0.91103707	-0.07724560	0.16794841	-0.72352572	0.07835264	-0.59322206	-0.61489858	-0.47505660	0.09605448	-0.66858806	-0.34535778	0.30239204	-0.20682454	0.78533371	-0.02505098	-0.77072835	0.29235175	0.11181338	-0.72093185	-0.13051186	-0.35458401	-0.69224657	0.17204256	0.33652204
3688	36.87000000	-0.91560432	-0.07125947	0.16947809	-0.72958114	0.08340788	-0.59247922	-0.61120850	-0.48428702	0.08882860	-0.66370495	-0.34997715	0.29941862	-0.21248795	0.78490587	-0.03203579	-0.77423413	0.27884089	0.12002050	-0.72400679	-0.12946424	-0.34875253	-0.69626887	0.17752439	0.32613301
3689	36.88000000	-0.91328430	-0.07165316	0.17252773	-0.73152287	0.07634236	-0.59526062	-0.61247526	-0.49109306	0.08639929	-0.66468365	-0.35764302	0.29334848	-0.22365628	0.77995018	-0.03404540	-0.78475028	0.26844598	0.12321251	-0.72029354	-0.13296658	-0.34266588	-0.70300577	0.17906706	0.31201477
3690	36.89000000	-0.91236102	-0.07675733	0.17132786	-0.73433851	0.07800801	-0.59643146	-0.61388110	-0.49071679	0.08439426	-0.66254869	-0.36902505	0.29370968	-0.23020139	0.77683977	-0.03144962	-0.78473045	0.25335620	0.12479525	-0.72355058	-0.13237680	-0.33967994	-0.70955649	0.16723946	0.29766305
3691	36.90000000	-0.91183817	-0.07551437	0.17073860	-0.73139557	0.07948605	-0.59634724	-0.60724174	-0.49706153	0.07938527	-0.65816112	-0.37841960	0.28561650	-0.23672393	0.77764213	-0.02372954	-0.78698914	0.23965915	0.12492994	-0.72142147	-0.13225881	-0.33949053	-0.71628015	0.16415799	0.27808535
3692	36.91000000	-0.91302497	-0.07689380	0.17114682	-0.73304089	0.07600020	-0.59599241	-0.59857532	-0.50295667	0.07417659	-0.65689366	-0.39048398	0.27770980	-0.25328112	0.77186577	-0.02217347	-0.78885090	0.23118335	0.13077582	-0.72126537	-0.13272527	-0.33917703	-0.72642663	0.15674139	0.26220626
3693	36.92000000	-0.90982004	-0.07808516	0.16784597	-0.72981837	0.07950701	-0.59158546	-0.59420977	-0.50846876	0.07568619	-0.65597312	-0.39578488	0.28001014	-0.26514992	0.76346298	-0.01248311	-0.79079484	0.22205723	0.13783002	-0.72398763	-0.13665653	-0.33175491	-0.73202756	0.13754687	0.24415290
3694	36.93000000	-0.90950130	-0.07916599	0.17200849	-0.72984735	0.07541685	-0.59149167	-0.59320024	-0.50851315	0.07123208	-0.65393158	-0.40301911	0.27313953	-0.28118624	0.75798134	-0.00075538	-0.79225262	0.20561650	0.13984616	-0.72829834	-0.13776844	-0.32991133	-0.74310914	0.12390198	0.22543596
3695	36.94000000	-0.91201267	-0.07885993	0.17163335	-0.73077254	0.07761056	-0.59709373	-0.59661915	-0.51547526	0.07302760	-0.64940101	-0.40950230	0.26815565	-0.30156284	0.75138225	0.00798446	-0.79494049	0.19531494	0.14580026	-0.72218573	-0.13879603	-0.32608166	-0.75391186	0.10609115	0.19914809
3696	36.95000000	-0.91450319	-0.08086265	0.17568375	-0.72879425	0.08179223	-0.59642805	-0.58979646	-0.52191696	0.06527029	-0.64612359	-0.41090405	0.26725662	-0.31628772	0.74110973	0.02335921	-0.79907414	0.18669184	0.14595719	-0.72115548	-0.14262608	-0.32367430	-0.75882430	0.09295554	0.17224758
3697	36.96000000	-0.91433907	-0.08279574	0.17848421	-0.72933761	0.07723494	-0.59560084	-0.58552481	-0.52778557	0.05883783	-0.64760424	-0.42233536	0.26779413	-0.33824390	0.73318753	0.03553775	-0.79832324	0.17628911	0.14483857	-0.72619164	-0.14054072	-0.31840461	-0.76723548	0.08255290	0.14899648
3698	36.97000000	-0.91454200	-0.08335915	0.17810832	-0.72765075	0.07522521	-0.59355260	-0.58513512	-0.53460078	0.05798570	-0.64282523	-0.42754592	0.26141998	-0.36125658	0.71833925	0.03896706	-0.79798775	0.16490274	0.15399361	-0.72636342	-0.14079418	-0.31181896	-0.77186717	0.07022078	0.12128654
3699	36.98000000	-0.91172488	-0.08751484	0.17749122	-0.72272676	0.07379024	-0.59482086	-0.57856824	-0.54084163	0.05448902	-0.64286281	-0.43073735	0.25781742	-0.38328454	0.70660871	0.04380548	-0.80225612	0.15874387	0.15669896	-0.72733681	-0.14162154	-0.30656821	-0.77838840	0.05356754	0.08839882
3700	36.99000000	-0.90748922	-0.08634187	0.17561847	-0.72486069	0.07558335	-0.59675040	-0.57387994	-0.54483384	0.05226548	-0.64273755	-0.43561320	0.25477497	-0.41175915	0.68954710	0.05051276	-0.80258714	0.14439689	0.15483550	-0.72490603	-0.14291771	-0.30259248	-0.78631887	0.04871197	0.05025666
3701	37	-0.91038487	-0.09090900	0.17742550	-0.72959981	0.07827335	-0.59531794	-0.57354982	-0.54541452	0.05054024	-0.63398203	-0.43993701	0.24254175	-0.43128466	0.67193245	0.04918478	-0.80293250	0.13769872	0.16074229	-0.72729520	-0.14335846	-0.30381133	-0.78576121	0.04990218	0.02073331
3702	37.01000000	-0.90915144	-0.08796444	0.17783773	-0.72934021	0.07570039	-0.59446521	-0.57449219	-0.55485099	0.04785169	-0.63160260	-0.44988903	0.24616542	-0.45462964	0.66043512	0.04870519	-0.80592528	0.13464859	0.16843160	-0.73000434	-0.14645536	-0.30483334	-0.79247635	0.04060116	-0.01000933
3703	37.02000000	-0.91117111	-0.08958640	0.18136585	-0.72665707	0.08172566	-0.59770090	-0.56597646	-0.55879505	0.04631491	-0.63321458	-0.45180285	0.24663515	-0.47638934	0.64725754	0.03996295	-0.81033647	0.12725080	0.17327323	-0.72958433	-0.15132175	-0.29614212	-0.79159306	0.03908052	-0.04959099
3704	37.03000000	-0.91027563	-0.09089408	0.18311315	-0.72183979	0.07765185	-0.59903355	-0.56284174	-0.56102921	0.03816729	-0.63272192	-0.45970368	0.24499383	-0.50657998	0.62364620	0.03735229	-0.80870605	0.12144569	0.17441917	-0.72853804	-0.15283144	-0.28934939	-0.79154233	0.03875765	-0.08727179
3705	37.04000000	-0.90639689	-0.08541036	0.17836118	-0.72268386	0.07593811	-0.59829257	-0.56167454	-0.56715690	0.03465664	-0.62830413	-0.46743270	0.24414764	-0.52819340	0.60153370	0.03982314	-0.80755332	0.11900952	0.17005656	-0.72835645	-0.15090995	-0.28654586	-0.79040533	0.03039711	-0.12627154
3706	37.05000000	-0.90636407	-0.08989869	0.18068328	-0.72258777	0.08675660	-0.60042579	-0.55689332	-0.57022271	0.03458409	-0.62647209	-0.47221304	0.24066093	-0.55109669	0.57508364	0.04132069	-0.80992946	0.11972263	0.17330229	-0.72853547	-0.15686371	-0.28361266	-0.78280453	0.02408855	-0.16087918
3707	37.06000000	-0.90586674	-0.09443943	0.18249922	-0.72345543	0.08166078	-0.59913057	-0.55162735	-0.57303728	0.03215855	-0.62376962	-0.47759885	0.24008573	-0.57356181	0.54732310	0.04671907	-0.80354866	0.11812869	0.16862091	-0.72869069	-0.16164214	-0.27955782	-0.77487620	0.02200377	-0.20160820
3708	37.07000000	-0.90497930	-0.08533648	0.18464622	-0.71990891	0.07956104	-0.59842695	-0.54565223	-0.58095000	0.02974492	-0.62331723	-0.48119380	0.22352417	-0.59715580	0.51982772	0.05360047	-0.80204167	0.11271596	0.16974291	-0.73152150	-0.16349569	-0.27408892	-0.76735567	0.00801639	-0.23986996
3709	37.08000000	-0.91124886	-0.09096326	0.18800326	-0.71696571	0.08217779	-0.60504092	-0.54209820	-0.58390665	0.02368175	-0.61983212	-0.48245596	0.22130855	-0.62109471	0.49296040	0.06158187	-0.80400847	0.11699314	0.18040136	-0.73263988	-0.16896217	-0.26977495	-0.76012783	-0.00690654	-0.26383962
3710	37.09000000	-0.90715658	-0.09266472	0.19018085	-0.72220024	0.08287792	-0.60675467	-0.54197101	-0.59010787	0.01919810	-0.61759949	-0.49145567	0.22885377	-0.64003558	0.46701862	0.06827907	-0.80510190	0.12458028	0.17458181	-0.73577104	-0.17088411	-0.26509220	-0.74305124	-0.01761967	-0.30420022
3711	37.10000000	-0.90633462	-0.09426013	0.18883309	-0.72217976	0.09153782	-0.60845537	-0.53675776	-0.59244958	0.01580168	-0.61789663	-0.49534619	0.21897278	-0.65723492	0.43465224	0.08026345	-0.80613866	0.12525241	0.18152406	-0.73547565	-0.17600402	-0.25887197	-0.73137358	-0.03821713	-0.33582844
3712	37.11000000	-0.90628373	-0.09213578	0.19065434	-0.72020611	0.08909061	-0.60317202	-0.53044944	-0.59923210	0.01551228	-0.60933190	-0.49904597	0.21504452	-0.67366375	0.40069757	0.08428239	-0.80249757	0.12769306	0.18165230	-0.73354752	-0.17776476	-0.25525744	-0.71912940	-0.06169794	-0.35726204
3713	37.12000000	-0.90669025	-0.09075416	0.19326365	-0.71567532	0.08702101	-0.59860954	-0.53004057	-0.60731011	0.01729483	-0.61150096	-0.50760453	0.21196483	-0.69045212	0.37123645	0.08964259	-0.80424539	0.13196890	0.17999797	-0.73042279	-0.18042991	-0.25110689	-0.69922163	-0.08117359	-0.38363155
3714	37.13000000	-0.90511887	-0.09375058	0.19601064	-0.71255933	0.09119278	-0.60472064	-0.51984263	-0.60576394	0.01377616	-0.61162612	-0.50853146	0.20875878	-0.70424428	0.34162981	0.09333368	-0.80504694	0.14111748	0.18285025	-0.73090203	-0.18935480	-0.24393168	-0.68491683	-0.10612965	-0.40302377
3715	37.14000000	-0.90568412	-0.08635764	0.18859085	-0.71449783	0.09736069	-0.60849409	-0.51317421	-0.61454027	0.01306272	-0.60605063	-0.50970639	0.20393613	-0.72003114	0.31391256	0.09264244	-0.79887436	0.14649975	0.18776307	-0.73581512	-0.19282089	-0.23159910	-0.66906433	-0.12141997	-0.42465903
3716	37.15000000	-0.90954635	-0.08872750	0.18726614	-0.71077198	0.09625972	-0.60596952	-0.50869931	-0.61750437	0.00893741	-0.60873531	-0.51122312	0.20181313	-0.72722478	0.29099806	0.09458593	-0.79752845	0.15388577	0.19148172	-0.74259579	-0.19228845	-0.22969364	-0.64874760	-0.14598598	-0.44841536
3717	37.16000000	-0.90643908	-0.09410114	0.18146683	-0.71199115	0.10160669	-0.60678822	-0.50680782	-0.62293390	0.00632185	-0.60663830	-0.52085094	0.20356579	-0.72991480	0.26139849	0.09492627	-0.79648965	0.15873899	0.18734159	-0.73727942	-0.19244829	-0.22207153	-0.63027474	-0.16628211	-0.46317799
3718	37.17000000	-0.90496624	-0.09588488	0.18644830	-0.71479106	0.10315762	-0.60601408	-0.50258489	-0.63388566	0.00242178	-0.60237786	-0.52672338	0.19684007	-0.74148136	0.24321066	0.09425179	-0.79497553	0.15865932	0.19444736	-0.73315434	-0.19787233	-0.21376835	-0.61546771	-0.17515215	-0.48038960
3719	37.18000000	-0.90521780	-0.09731731	0.18771818	-0.71658072	0.10260765	-0.60286674	-0.49177531	-0.63835274	0.00248245	-0.60549218	-0.52325863	0.19039514	-0.75060228	0.22187176	0.09641764	-0.79058920	0.15963853	0.19366430	-0.73798532	-0.20883809	-0.20890495	-0.59866556	-0.18285965	-0.49420222
3720	37.19000000	-0.90591516	-0.09750430	0.18261433	-0.71809371	0.10627403	-0.60306809	-0.48906921	-0.64046094	-0.00143400	-0.60177735	-0.52766361	0.18333072	-0.75150307	0.19605852	0.10009808	-0.79060055	0.17048263	0.19978206	-0.73849240	-0.20869848	-0.19919013	-0.58761497	-0.19449191	-0.50703734
3721	37.20000000	-0.90684637	-0.10079814	0.18161277	-0.71427277	0.10653421	-0.60296696	-0.48176965	-0.64897194	-0.00823097	-0.59827788	-0.53313239	0.18204536	-0.76058322	0.17592871	0.10303494	-0.78788095	0.17677133	0.20425414	-0.73964843	-0.20549079	-0.19348048	-0.56761749	-0.20454937	-0.51370551
3722	37.21000000	-0.90549998	-0.09880782	0.17909877	-0.71545101	0.11275209	-0.59887963	-0.47272182	-0.65154007	-0.00389283	-0.60033614	-0.53303312	0.18032832	-0.75946865	0.16714366	0.10168002	-0.78332343	0.18079895	0.20919845	-0.74583964	-0.21591012	-0.18622168	-0.55707137	-0.21749209	-0.52593897
3723	37.22000000	-0.90735308	-0.09547209	0.18160260	-0.71439847	0.11257434	-0.60250715	-0.46790991	-0.65739563	-0.00452617	-0.60066872	-0.53529288	0.17505567	-0.75859784	0.16192769	0.10290193	-0.78367163	0.18126959	0.21024232	-0.74751456	-0.22196915	-0.17350362	-0.55061891	-0.23153279	-0.52533643
3724	37.23000000	-0.90373209	-0.10137287	0.17925138	-0.71790498	0.11501638	-0.60302575	-0.45917363	-0.66320032	-0.01341770	-0.60242045	-0.53871915	0.17343632	-0.75989451	0.15984911	0.10431571	-0.77985614	0.18210881	0.21695311	-0.74499206	-0.22282730	-0.16293031	-0.55080072	-0.23634158	-0.52154210
3725	37.24000000	-0.90825095	-0.10408207	0.17610849	-0.72105112	0.11590983	-0.59504613	-0.45285161	-0.66982843	-0.01494996	-0.59538003	-0.54558474	0.16767546	-0.75785753	0.16636582	0.10073771	-0.78262173	0.17977525	0.21376129	-0.74603104	-0.22605344	-0.15547600	-0.56022116	-0.23511987	-0.51816601
3726	37.25000000	-0.90995115	-0.10230487	0.17173044	-0.71519001	0.11312296	-0.59320743	-0.44325578	-0.67623360	-0.01535323	-0.59439802	-0.54510284	0.15969080	-0.75725231	0.16972891	0.10460931	-0.78376279	0.17577170	0.21927123	-0.74447217	-0.23121885	-0.14872943	-0.56906514	-0.22596580	-0.50984445
